<svg width="25.714111" height="20.000000" viewBox="0 0 25.7141 20" fill="none" xmlns="http://www.w3.org/2000/svg" xmlns:xlink="http://www.w3.org/1999/xlink">
	<desc>
			Created with Pixso.
	</desc>
	<defs/>
	<path id="Vector" d="M25.71 8.21L25.71 8.92C25.71 9.52 25.23 10 24.64 10L24.28 10L23.11 18.16C22.96 19.21 22.06 20 20.99 20L4.71 20C3.64 20 2.74 19.21 2.59 18.16L1.42 10L1.07 10C0.47 10 0 9.52 0 8.92L0 8.21C0 7.62 0.47 7.14 1.07 7.14L4.07 7.14L8.84 0.58C9.3 -0.05 10.2 -0.2 10.84 0.27C11.47 0.73 11.61 1.63 11.15 2.26L7.61 7.14L18.1 7.14L14.55 2.26C14.09 1.63 14.23 0.73 14.87 0.27C15.51 -0.2 16.4 -0.05 16.86 0.58L21.63 7.14L24.64 7.14C25.23 7.14 25.71 7.62 25.71 8.21ZM13.92 16.07L13.92 11.07C13.92 10.47 13.44 10 12.85 10C12.26 10 11.78 10.47 11.78 11.07L11.78 16.07C11.78 16.66 12.26 17.14 12.85 17.14C13.44 17.14 13.92 16.66 13.92 16.07ZM18.92 16.07L18.92 11.07C18.92 10.47 18.44 10 17.85 10C17.26 10 16.78 10.47 16.78 11.07L16.78 16.07C16.78 16.66 17.26 17.14 17.85 17.14C18.44 17.14 18.92 16.66 18.92 16.07ZM8.92 16.07L8.92 11.07C8.92 10.47 8.44 10 7.85 10C7.26 10 6.78 10.47 6.78 11.07L6.78 16.07C6.78 16.66 7.26 17.14 7.85 17.14C8.44 17.14 8.92 16.66 8.92 16.07Z" fill="#000000" fill-opacity="1.000000" fill-rule="nonzero"/>
</svg>
