<svg width="19.996582" height="20.000000" viewBox="0 0 19.9966 20" fill="none" xmlns="http://www.w3.org/2000/svg" xmlns:xlink="http://www.w3.org/1999/xlink">
	<desc>
			Created with Pixso.
	</desc>
	<defs/>
	<path id="Vector" d="M19.72 17.29L15.83 13.39C15.65 13.22 15.41 13.12 15.16 13.12L14.52 13.12C15.6 11.74 16.24 10.01 16.24 8.12C16.24 3.63 12.61 0 8.12 0C3.63 0 0 3.63 0 8.12C0 12.61 3.63 16.24 8.12 16.24C10.01 16.24 11.74 15.6 13.12 14.52L13.12 15.16C13.12 15.41 13.22 15.65 13.39 15.83L17.29 19.72C17.65 20.09 18.25 20.09 18.61 19.72L19.72 18.61C20.08 18.25 20.08 17.65 19.72 17.29ZM8.12 13.12C5.36 13.12 3.12 10.88 3.12 8.12C3.12 5.36 5.35 3.12 8.12 3.12C10.88 3.12 13.12 5.35 13.12 8.12C13.12 10.88 10.88 13.12 8.12 13.12Z" fill="#000000" fill-opacity="1.000000" fill-rule="nonzero"/>
</svg>
