<svg width="18.000122" height="19.995850" viewBox="0 0 18.0001 19.9958" fill="none" xmlns="http://www.w3.org/2000/svg" xmlns:xlink="http://www.w3.org/1999/xlink">
	<desc>
			Created with Pixso.
	</desc>
	<defs/>
	<path id="Vector" d="M17.42 8.17L9.71 0.29C9.61 0.2 9.5 0.12 9.38 0.07C9.26 0.02 9.13 0 9 0C8.86 0 8.73 0.02 8.61 0.07C8.49 0.12 8.38 0.2 8.29 0.29L0.58 8.18C0.39 8.37 0.24 8.59 0.14 8.84C0.04 9.08 -0.01 9.35 0 9.61L0 17.99C-0.01 18.5 0.19 19 0.54 19.37C0.89 19.74 1.37 19.96 1.89 19.99L5 19.99L5 10.99C5 10.73 5.1 10.47 5.29 10.28C5.48 10.1 5.73 9.99 6 9.99L12 9.99C12.26 9.99 12.51 10.1 12.7 10.28C12.89 10.47 13 10.73 13 10.99L13 19.99L16.11 19.99C16.62 19.96 17.1 19.74 17.45 19.37C17.8 19 18 18.5 18 17.99L18 9.61C18 9.07 17.79 8.56 17.42 8.17Z" fill="#000000" fill-opacity="1.000000" fill-rule="nonzero"/>
</svg>
