<svg width="21.000000" height="16.500000" viewBox="0 0 21 16.5" fill="none" xmlns="http://www.w3.org/2000/svg" xmlns:xlink="http://www.w3.org/1999/xlink">
	<desc>
			Created with Pixso.
	</desc>
	<defs/>
	<path id="Vector" d="M15.14 0C13.14 0 11.43 1.28 10.49 2.16C9.55 1.28 7.85 0 5.85 0C2.4 0 0 2.16 0 5.25C0 8.66 2.98 10.86 5.88 12.99C7.24 14 8.65 15.04 9.74 16.19C9.92 16.38 10.19 16.5 10.47 16.5L10.52 16.5C10.8 16.5 11.07 16.38 11.25 16.19C12.34 15.04 13.75 14 15.11 12.99C18 10.86 21 8.66 21 5.25C21 2.16 18.59 0 15.14 0Z" fill="#000000" fill-opacity="1.000000" fill-rule="nonzero"/>
</svg>
